<svg xmlns="http://www.w3.org/2000/svg" width="12" height="14" viewBox="0 0 12 14">
  <path id="icon-c" fill="#5A5A5A" d="M143.701172,137.367188 L146.223633,138.166992 C145.836912,139.573249 145.193852,140.617672 144.294434,141.300293 C143.395015,141.982914 142.253913,142.324219 140.871094,142.324219 C139.160148,142.324219 137.753912,141.739752 136.652344,140.570801 C135.550776,139.40185 135,137.803721 135,135.776367 C135,133.631825 135.553705,131.966315 136.661133,130.779785 C137.76856,129.593256 139.2246,129 141.029297,129 C142.605477,129 143.885737,129.465816 144.870117,130.397461 C145.456058,130.948245 145.895506,131.739253 146.188477,132.770508 L143.613281,133.385742 C143.460937,132.71777 143.143069,132.190432 142.659668,131.803711 C142.176267,131.41699 141.588871,131.223633 140.897461,131.223633 C139.942378,131.223633 139.167483,131.566403 138.572754,132.251953 C137.978024,132.937503 137.680664,134.047844 137.680664,135.583008 C137.680664,137.211922 137.97363,138.372067 138.55957,139.063477 C139.145511,139.754886 139.907222,140.100586 140.844727,140.100586 C141.536136,140.100586 142.130857,139.880862 142.628906,139.441406 C143.126956,139.001951 143.484374,138.310552 143.701172,137.367188 Z" transform="translate(-135 -129)"/>
</svg>
