<svg xmlns="http://www.w3.org/2000/svg" width="13" height="14" viewBox="0 0 13 14">
  <path id="icon-o" fill="#5A5A5A" d="M165,135.741211 C165,134.428704 165.196287,133.327153 165.588867,132.436523 C165.881837,131.78027 166.281736,131.191409 166.788574,130.669922 C167.295413,130.148435 167.850583,129.76172 168.454102,129.509766 C169.25684,129.16992 170.182612,129 171.231445,129 C173.129892,129 174.64892,129.588861 175.788574,130.766602 C176.928228,131.944342 177.498047,133.582021 177.498047,135.679688 C177.498047,137.759776 176.932623,139.387201 175.801758,140.562012 C174.670893,141.736822 173.159189,142.324219 171.266602,142.324219 C169.350576,142.324219 167.827154,141.739752 166.696289,140.570801 C165.565424,139.40185 165,137.792002 165,135.741211 Z M167.680664,135.65332 C167.680664,137.112312 168.017575,138.218258 168.691406,138.971191 C169.365238,139.724125 170.220698,140.100586 171.257812,140.100586 C172.294927,140.100586 173.145993,139.727055 173.811035,138.97998 C174.476078,138.232906 174.808594,137.112312 174.808594,135.618164 C174.808594,134.141594 174.484867,133.040043 173.837402,132.313477 C173.189938,131.58691 172.330083,131.223633 171.257812,131.223633 C170.185542,131.223633 169.321292,131.591305 168.665039,132.32666 C168.008786,133.062015 167.680664,134.170891 167.680664,135.65332 Z" transform="translate(-165 -129)"/>
</svg>
